<svg width="0" height="0" class="hidden">
  <symbol xmlns="http://www.w3.org/2000/svg" viewBox="0 0 448 512" id="check-solid">
    <path d="M438.6 105.4c12.5 12.5 12.5 32.8 0 45.3l-256 256c-12.5 12.5-32.8 12.5-45.3 0l-128-128c-12.5-12.5-12.5-32.8 0-45.3s32.8-12.5 45.3 0L160 338.7 393.4 105.4c12.5-12.5 32.8-12.5 45.3 0z"></path>
  </symbol>
  <symbol xmlns="http://www.w3.org/2000/svg" viewBox="0 0 512 512" id="line-brands-solid">
    <path d="M311 196.8v81.3c0 2.1-1.6 3.7-3.7 3.7h-13c-1.3 0-2.4-.7-3-1.5l-37.3-50.3v48.2c0 2.1-1.6 3.7-3.7 3.7h-13c-2.1 0-3.7-1.6-3.7-3.7V196.9c0-2.1 1.6-3.7 3.7-3.7h12.9c1.1 0 2.4 .6 3 1.6l37.3 50.3V196.9c0-2.1 1.6-3.7 3.7-3.7h13c2.1-.1 3.8 1.6 3.8 3.5zm-93.7-3.7h-13c-2.1 0-3.7 1.6-3.7 3.7v81.3c0 2.1 1.6 3.7 3.7 3.7h13c2.1 0 3.7-1.6 3.7-3.7V196.8c0-1.9-1.6-3.7-3.7-3.7zm-31.4 68.1H150.3V196.8c0-2.1-1.6-3.7-3.7-3.7h-13c-2.1 0-3.7 1.6-3.7 3.7v81.3c0 1 .3 1.8 1 2.5c.7 .6 1.5 1 2.5 1h52.2c2.1 0 3.7-1.6 3.7-3.7v-13c0-1.9-1.6-3.7-3.5-3.7zm193.7-68.1H327.3c-1.9 0-3.7 1.6-3.7 3.7v81.3c0 1.9 1.6 3.7 3.7 3.7h52.2c2.1 0 3.7-1.6 3.7-3.7V265c0-2.1-1.6-3.7-3.7-3.7H344V247.7h35.5c2.1 0 3.7-1.6 3.7-3.7V230.9c0-2.1-1.6-3.7-3.7-3.7H344V213.5h35.5c2.1 0 3.7-1.6 3.7-3.7v-13c-.1-1.9-1.7-3.7-3.7-3.7zM512 93.4V419.4c-.1 51.2-42.1 92.7-93.4 92.6H92.6C41.4 511.9-.1 469.8 0 418.6V92.6C.1 41.4 42.2-.1 93.4 0H419.4c51.2 .1 92.7 42.1 92.6 93.4zM441.6 233.5c0-83.4-83.7-151.3-186.4-151.3s-186.4 67.9-186.4 151.3c0 74.7 66.3 137.4 155.9 149.3c21.8 4.7 19.3 12.7 14.4 42.1c-.8 4.7-3.8 18.4 16.1 10.1s107.3-63.2 146.5-108.2c27-29.7 39.9-59.8 39.9-93.1z"></path>
  </symbol>
  <symbol xmlns="http://www.w3.org/2000/svg" viewBox="0 0 640 512" id="computer-solid">
    <path d="M384 96l0 224L64 320 64 96l320 0zM64 32C28.7 32 0 60.7 0 96L0 320c0 35.3 28.7 64 64 64l117.3 0-10.7 32L96 416c-17.7 0-32 14.3-32 32s14.3 32 32 32l256 0c17.7 0 32-14.3 32-32s-14.3-32-32-32l-74.7 0-10.7-32L384 384c35.3 0 64-28.7 64-64l0-224c0-35.3-28.7-64-64-64L64 32zm464 0c-26.5 0-48 21.5-48 48l0 352c0 26.5 21.5 48 48 48l64 0c26.5 0 48-21.5 48-48l0-352c0-26.5-21.5-48-48-48l-64 0zm16 64l32 0c8.8 0 16 7.2 16 16s-7.2 16-16 16l-32 0c-8.8 0-16-7.2-16-16s7.2-16 16-16zm-16 80c0-8.8 7.2-16 16-16l32 0c8.8 0 16 7.2 16 16s-7.2 16-16 16l-32 0c-8.8 0-16-7.2-16-16zm32 160a32 32 0 1 1 0 64 32 32 0 1 1 0-64z"></path>
  </symbol>
  <symbol xmlns="http://www.w3.org/2000/svg" viewBox="0 0 512 512" id="clock-regular">
    <path d="M464 256A208 208 0 1 1 48 256a208 208 0 1 1 416 0zM0 256a256 256 0 1 0 512 0A256 256 0 1 0 0 256zM232 120l0 136c0 8 4 15.5 10.7 20l96 64c11 7.4 25.9 4.4 33.3-6.7s4.4-25.9-6.7-33.3L280 243.2 280 120c0-13.3-10.7-24-24-24s-24 10.7-24 24z"></path>
  </symbol>
  <symbol xmlns="http://www.w3.org/2000/svg" viewBox="0 0 576 512" id="arrow-up-right-dots-solid">
    <path d="M160 0c-17.7 0-32 14.3-32 32s14.3 32 32 32l50.7 0L9.4 265.4c-12.5 12.5-12.5 32.8 0 45.3s32.8 12.5 45.3 0L256 109.3l0 50.7c0 17.7 14.3 32 32 32s32-14.3 32-32l0-128c0-17.7-14.3-32-32-32L160 0zM576 80a48 48 0 1 0 -96 0 48 48 0 1 0 96 0zM448 208a48 48 0 1 0 -96 0 48 48 0 1 0 96 0zM400 384a48 48 0 1 0 0-96 48 48 0 1 0 0 96zm48 80a48 48 0 1 0 -96 0 48 48 0 1 0 96 0zm128 0a48 48 0 1 0 -96 0 48 48 0 1 0 96 0zM272 384a48 48 0 1 0 0-96 48 48 0 1 0 0 96zm48 80a48 48 0 1 0 -96 0 48 48 0 1 0 96 0zM144 512a48 48 0 1 0 0-96 48 48 0 1 0 0 96zM576 336a48 48 0 1 0 -96 0 48 48 0 1 0 96 0zm-48-80a48 48 0 1 0 0-96 48 48 0 1 0 0 96z"></path>
  </symbol>
  <symbol xmlns="http://www.w3.org/2000/svg" viewBox="0 0 448 512" id="bars-solid">
    <path d="M0 96C0 78.3 14.3 64 32 64l384 0c17.7 0 32 14.3 32 32s-14.3 32-32 32L32 128C14.3 128 0 113.7 0 96zM0 256c0-17.7 14.3-32 32-32l384 0c17.7 0 32 14.3 32 32s-14.3 32-32 32L32 288c-17.7 0-32-14.3-32-32zM448 416c0 17.7-14.3 32-32 32L32 448c-17.7 0-32-14.3-32-32s14.3-32 32-32l384 0c17.7 0 32 14.3 32 32z"></path>
  </symbol>
  <symbol xmlns="http://www.w3.org/2000/svg" viewBox="0 0 448 512" id="quote-right-solid">
    <path d="M448 296c0 66.3-53.7 120-120 120l-8 0c-17.7 0-32-14.3-32-32s14.3-32 32-32l8 0c30.9 0 56-25.1 56-56l0-8-64 0c-35.3 0-64-28.7-64-64l0-64c0-35.3 28.7-64 64-64l64 0c35.3 0 64 28.7 64 64l0 32 0 32 0 72zm-256 0c0 66.3-53.7 120-120 120l-8 0c-17.7 0-32-14.3-32-32s14.3-32 32-32l8 0c30.9 0 56-25.1 56-56l0-8-64 0c-35.3 0-64-28.7-64-64l0-64c0-35.3 28.7-64 64-64l64 0c35.3 0 64 28.7 64 64l0 32 0 32 0 72z"></path>
  </symbol>
  <symbol xmlns="http://www.w3.org/2000/svg" viewBox="0 0 512 512" id="wordpress-brands-solid">
    <path d="M61.7 169.4l101.5 278C92.2 413 43.3 340.2 43.3 256c0-30.9 6.6-60.1 18.4-86.6zm337.9 75.9c0-26.3-9.4-44.5-17.5-58.7-10.8-17.5-20.9-32.4-20.9-49.9 0-19.6 14.8-37.8 35.7-37.8 .9 0 1.8 .1 2.8 .2-37.9-34.7-88.3-55.9-143.7-55.9-74.3 0-139.7 38.1-177.8 95.9 5 .2 9.7 .3 13.7 .3 22.2 0 56.7-2.7 56.7-2.7 11.5-.7 12.8 16.2 1.4 17.5 0 0-11.5 1.3-24.3 2l77.5 230.4L249.8 247l-33.1-90.8c-11.5-.7-22.3-2-22.3-2-11.5-.7-10.1-18.2 1.3-17.5 0 0 35.1 2.7 56 2.7 22.2 0 56.7-2.7 56.7-2.7 11.5-.7 12.8 16.2 1.4 17.5 0 0-11.5 1.3-24.3 2l76.9 228.7 21.2-70.9c9-29.4 16-50.5 16-68.7zm-139.9 29.3l-63.8 185.5c19.1 5.6 39.2 8.7 60.1 8.7 24.8 0 48.5-4.3 70.6-12.1-.6-.9-1.1-1.9-1.5-2.9l-65.4-179.2zm183-120.7c.9 6.8 1.4 14 1.4 21.9 0 21.6-4 45.8-16.2 76.2l-65 187.9C426.2 403 468.7 334.5 468.7 256c0-37-9.4-71.8-26-102.1zM504 256c0 136.8-111.3 248-248 248C119.2 504 8 392.7 8 256 8 119.2 119.2 8 256 8c136.7 0 248 111.2 248 248zm-11.4 0c0-130.5-106.2-236.6-236.6-236.6C125.5 19.4 19.4 125.5 19.4 256S125.6 492.6 256 492.6c130.5 0 236.6-106.1 236.6-236.6z"></path>
  </symbol>
</svg>